<svg xmlns="http://www.w3.org/2000/svg" xmlns:xlink="http://www.w3.org/1999/xlink" width="500" zoomAndPan="magnify" viewBox="0 0 375 374.999991" height="500" preserveAspectRatio="xMidYMid meet" version="1.0"><defs><filter x="0%" y="0%" width="100%" height="100%" id="03493b3b0c"><feColorMatrix values="0 0 0 0 1 0 0 0 0 1 0 0 0 0 1 0 0 0 1 0" color-interpolation-filters="sRGB"/></filter><g/><mask id="b5ba83cb89"><g filter="url(#03493b3b0c)"><rect x="-37.5" width="450" fill="#000000" y="-37.499999" height="449.999989" fill-opacity="0.14"/></g></mask><clipPath id="f23704a33c"><path d="M 0.71875 0.121094 L 340.320312 0.121094 L 340.320312 73 L 0.71875 73 Z M 0.71875 0.121094 " clip-rule="nonzero"/></clipPath><clipPath id="e1ecb2eefd"><path d="M 129 31 L 320 31 L 320 86.210938 L 129 86.210938 Z M 129 31 " clip-rule="nonzero"/></clipPath><clipPath id="99d757a8cd"><rect x="0" width="341" y="0" height="87"/></clipPath></defs><rect x="-37.5" width="450" fill="#ffffff" y="-37.499999" height="449.999989" fill-opacity="1"/><rect x="-37.5" width="450" fill="#ffffff" y="-37.499999" height="449.999989" fill-opacity="1"/><g mask="url(#b5ba83cb89)"><g transform="matrix(1, 0, 0, 1, 0, 195)"><g clip-path="url(#99d757a8cd)"><g clip-path="url(#f23704a33c)"><path fill="#ffffff" d="M 340.234375 33.144531 C 340.234375 33.144531 339.054688 32.566406 336.8125 31.472656 C 335.683594 30.949219 334.285156 30.308594 332.636719 29.574219 C 330.960938 28.878906 329.058594 28.054688 326.871094 27.242188 C 322.515625 25.585938 317.128906 23.796875 310.808594 22.234375 C 310.027344 22.019531 309.210938 21.863281 308.394531 21.667969 C 307.574219 21.492188 306.75 21.277344 305.898438 21.117188 C 304.195312 20.785156 302.460938 20.414062 300.648438 20.132812 C 297.046875 19.5 293.222656 19.011719 289.214844 18.652344 C 288.210938 18.574219 287.207031 18.457031 286.175781 18.40625 C 285.152344 18.34375 284.117188 18.28125 283.070312 18.21875 C 280.972656 18.148438 278.839844 18.054688 276.660156 18.066406 C 272.3125 18.054688 267.804688 18.222656 263.1875 18.625 C 253.949219 19.445312 244.242188 21.214844 234.527344 24.230469 C 229.675781 25.738281 224.824219 27.558594 220.050781 29.722656 C 215.246094 31.917969 210.386719 34.480469 205.40625 37.316406 C 200.429688 40.152344 195.332031 43.261719 190.003906 46.480469 C 184.675781 49.695312 179.113281 53.023438 173.1875 56.21875 C 167.265625 59.410156 161.105469 62.386719 154.699219 64.875 C 153.894531 65.179688 153.121094 65.515625 152.292969 65.789062 C 151.472656 66.074219 150.652344 66.355469 149.832031 66.636719 C 149.011719 66.917969 148.195312 67.195312 147.382812 67.472656 C 146.554688 67.714844 145.730469 67.953125 144.910156 68.191406 C 143.265625 68.664062 141.632812 69.152344 139.976562 69.515625 C 139.152344 69.707031 138.332031 69.898438 137.511719 70.09375 L 136.285156 70.378906 C 135.875 70.464844 135.460938 70.535156 135.050781 70.617188 C 128.488281 71.957031 121.96875 72.65625 115.605469 72.902344 C 109.242188 73.136719 103.03125 72.953125 97.039062 72.3125 C 91.050781 71.667969 85.277344 70.667969 79.769531 69.378906 C 74.269531 68.023438 69.019531 66.4375 64.070312 64.601562 C 62.832031 64.15625 61.625 63.640625 60.417969 63.167969 C 59.820312 62.925781 59.222656 62.683594 58.628906 62.445312 C 58.035156 62.203125 57.457031 61.929688 56.875 61.671875 C 55.71875 61.148438 54.574219 60.632812 53.441406 60.121094 C 52.320312 59.578125 51.222656 59.015625 50.136719 58.472656 C 49.59375 58.195312 49.050781 57.925781 48.515625 57.652344 C 47.980469 57.375 47.460938 57.074219 46.9375 56.785156 C 45.898438 56.207031 44.871094 55.632812 43.855469 55.066406 C 42.847656 54.476562 41.875 53.859375 40.902344 53.269531 C 39.9375 52.664062 38.972656 52.101562 38.058594 51.460938 C 30.652344 46.566406 24.53125 41.390625 19.625 36.453125 C 14.710938 31.511719 11.023438 26.8125 8.242188 22.871094 C 5.523438 18.871094 3.671875 15.644531 2.515625 13.40625 C 1.394531 11.167969 0.804688 9.988281 0.804688 9.988281 C 0.804688 9.988281 1.710938 10.9375 3.429688 12.746094 C 5.148438 14.539062 7.78125 17.085938 11.289062 20.121094 C 14.859375 23.105469 19.339844 26.546875 24.835938 29.980469 C 30.324219 33.414062 36.824219 36.835938 44.234375 39.875 C 45.148438 40.28125 46.113281 40.613281 47.066406 40.980469 C 48.023438 41.339844 48.984375 41.722656 49.964844 42.070312 C 50.957031 42.402344 51.957031 42.742188 52.964844 43.082031 C 53.46875 43.25 53.972656 43.429688 54.484375 43.59375 C 55 43.746094 55.519531 43.898438 56.039062 44.054688 C 57.078125 44.363281 58.125 44.675781 59.183594 44.992188 C 60.25 45.269531 61.328125 45.550781 62.417969 45.832031 C 62.960938 45.972656 63.5 46.128906 64.050781 46.253906 C 64.605469 46.375 65.160156 46.5 65.71875 46.625 C 66.835938 46.863281 67.945312 47.148438 69.085938 47.363281 C 73.628906 48.28125 78.355469 48.976562 83.214844 49.503906 C 88.085938 49.96875 93.09375 50.203125 98.195312 50.183594 C 103.300781 50.164062 108.5 49.785156 113.734375 49.140625 C 118.96875 48.480469 124.242188 47.515625 129.460938 46.113281 C 129.789062 46.027344 130.121094 45.953125 130.445312 45.863281 L 131.417969 45.574219 C 132.066406 45.382812 132.71875 45.195312 133.371094 45 C 134.683594 44.648438 135.960938 44.1875 137.253906 43.75 C 137.898438 43.535156 138.546875 43.316406 139.195312 43.097656 C 139.832031 42.851562 140.46875 42.601562 141.105469 42.355469 C 141.746094 42.109375 142.386719 41.863281 143.027344 41.617188 C 143.667969 41.386719 144.316406 41.070312 144.960938 40.804688 C 150.136719 38.609375 155.367188 35.992188 160.730469 33.097656 C 171.453125 27.320312 182.226562 20.738281 193.65625 15.101562 C 199.367188 12.28125 205.234375 9.707031 211.230469 7.578125 C 217.269531 5.445312 223.308594 3.851562 229.246094 2.710938 C 241.128906 0.433594 252.566406 -0.0351562 263.085938 0.671875 C 268.347656 1.035156 273.390625 1.691406 278.167969 2.5625 C 280.558594 2.976562 282.882812 3.5 285.144531 4.011719 C 286.269531 4.292969 287.378906 4.578125 288.480469 4.855469 C 289.578125 5.125 290.648438 5.464844 291.710938 5.761719 C 295.957031 7.003906 299.921875 8.371094 303.589844 9.863281 C 305.433594 10.574219 307.183594 11.371094 308.882812 12.117188 C 309.730469 12.488281 310.550781 12.90625 311.363281 13.289062 C 312.167969 13.683594 312.96875 14.042969 313.734375 14.457031 C 319.910156 17.613281 324.914062 20.820312 328.824219 23.632812 C 330.789062 25.023438 332.453125 26.363281 333.898438 27.507812 C 335.320312 28.6875 336.496094 29.707031 337.4375 30.53125 C 339.269531 32.246094 340.234375 33.144531 340.234375 33.144531 " fill-opacity="1" fill-rule="nonzero"/></g><g clip-path="url(#e1ecb2eefd)"><path fill="#034852" d="M 319.695312 44.441406 C 319.695312 44.441406 319.054688 44.125 317.832031 43.523438 C 316.589844 42.980469 314.789062 42.136719 312.375 41.347656 C 307.589844 39.714844 300.417969 38.21875 291.613281 38.449219 C 282.824219 38.652344 272.429688 40.519531 261.632812 44.480469 C 260.28125 44.976562 258.925781 45.496094 257.570312 46.058594 C 256.21875 46.597656 254.835938 47.25 253.445312 47.847656 C 252.054688 48.457031 250.667969 49.148438 249.257812 49.792969 C 247.855469 50.488281 246.441406 51.179688 245.019531 51.902344 C 239.335938 54.8125 233.511719 58.082031 227.46875 61.496094 C 221.425781 64.914062 215.425781 68.285156 209.449219 71.355469 C 203.472656 74.429688 197.511719 77.1875 191.585938 79.417969 C 179.773438 83.882812 168.410156 86.066406 158.839844 86.371094 C 154.046875 86.488281 149.726562 86.207031 145.988281 85.65625 C 145.519531 85.609375 145.0625 85.519531 144.617188 85.433594 C 144.167969 85.34375 143.730469 85.261719 143.296875 85.175781 C 142.4375 85 141.613281 84.871094 140.832031 84.667969 C 140.054688 84.460938 139.3125 84.257812 138.601562 84.066406 C 138.25 83.972656 137.90625 83.878906 137.570312 83.785156 C 137.238281 83.699219 136.914062 83.605469 136.601562 83.488281 C 135.367188 83.046875 134.273438 82.65625 133.320312 82.316406 C 132.382812 81.953125 131.617188 81.570312 130.988281 81.296875 C 129.75 80.726562 129.101562 80.425781 129.101562 80.425781 C 129.101562 80.425781 129.808594 80.539062 131.15625 80.757812 C 131.828125 80.855469 132.640625 81.027344 133.621094 81.144531 C 134.601562 81.238281 135.730469 81.351562 137 81.472656 C 137.3125 81.515625 137.636719 81.527344 137.976562 81.535156 C 138.308594 81.546875 138.652344 81.558594 139.007812 81.570312 C 139.707031 81.59375 140.441406 81.621094 141.207031 81.648438 C 141.972656 81.667969 142.78125 81.613281 143.605469 81.601562 C 144.019531 81.59375 144.441406 81.582031 144.871094 81.570312 C 145.300781 81.5625 145.734375 81.554688 146.179688 81.507812 C 149.734375 81.28125 153.734375 80.742188 158.070312 79.851562 C 166.746094 77.992188 176.71875 74.464844 187.183594 69.25 C 192.398438 66.65625 197.804688 63.613281 203.414062 60.335938 C 209.027344 57.054688 214.855469 53.542969 221.007812 50.0625 C 227.167969 46.585938 233.378906 43.332031 239.625 40.554688 C 241.1875 39.863281 242.761719 39.210938 244.3125 38.5625 C 245.894531 37.960938 247.4375 37.332031 249.007812 36.785156 C 250.589844 36.25 252.109375 35.683594 253.695312 35.210938 C 255.265625 34.71875 256.832031 34.285156 258.382812 33.886719 C 270.8125 30.714844 282.542969 30.40625 292.066406 31.902344 C 296.835938 32.644531 301.046875 33.820312 304.59375 35.191406 C 308.144531 36.542969 311.027344 38.089844 313.261719 39.496094 C 315.503906 40.886719 317.074219 42.191406 318.136719 43.050781 C 319.160156 43.960938 319.695312 44.441406 319.695312 44.441406 " fill-opacity="1" fill-rule="nonzero"/></g><path fill="#034852" d="M 156.890625 19.601562 C 156.890625 19.601562 156.523438 19.847656 155.824219 20.308594 C 155.472656 20.542969 155.039062 20.824219 154.523438 21.160156 C 154.007812 21.5 153.40625 21.878906 152.71875 22.277344 C 149.984375 23.945312 145.902344 26.167969 140.601562 28.433594 C 139.285156 29.027344 137.867188 29.535156 136.398438 30.117188 C 134.921875 30.667969 133.367188 31.195312 131.753906 31.734375 C 130.128906 32.222656 128.449219 32.769531 126.691406 33.214844 C 125.816406 33.441406 124.925781 33.691406 124.015625 33.90625 C 123.105469 34.109375 122.183594 34.320312 121.246094 34.53125 C 117.496094 35.3125 113.511719 36 109.347656 36.398438 C 105.1875 36.808594 100.851562 37.011719 96.414062 36.941406 C 91.976562 36.847656 87.652344 36.488281 83.507812 35.925781 C 79.359375 35.375 75.40625 34.542969 71.683594 33.628906 C 70.757812 33.382812 69.84375 33.140625 68.941406 32.898438 C 68.039062 32.65625 67.160156 32.371094 66.292969 32.113281 C 64.550781 31.601562 62.890625 30.996094 61.285156 30.441406 C 59.691406 29.851562 58.160156 29.257812 56.707031 28.65625 C 55.980469 28.34375 55.273438 28.039062 54.582031 27.738281 C 54.234375 27.585938 53.894531 27.4375 53.554688 27.289062 C 53.222656 27.128906 52.894531 26.972656 52.566406 26.820312 C 47.351562 24.355469 43.355469 21.980469 40.691406 20.210938 C 40.015625 19.785156 39.429688 19.382812 38.929688 19.023438 C 38.425781 18.667969 38.003906 18.371094 37.660156 18.125 C 36.980469 17.636719 36.621094 17.375 36.621094 17.375 C 36.621094 17.375 38.308594 17.890625 41.339844 18.816406 C 44.359375 19.734375 48.753906 20.933594 54.171875 22.164062 C 54.507812 22.242188 54.851562 22.320312 55.195312 22.402344 C 55.542969 22.472656 55.894531 22.546875 56.25 22.617188 C 56.960938 22.765625 57.683594 22.917969 58.425781 23.074219 C 59.90625 23.367188 61.449219 23.648438 63.039062 23.941406 C 64.640625 24.195312 66.28125 24.511719 67.984375 24.738281 C 68.839844 24.859375 69.695312 25.007812 70.570312 25.117188 C 71.445312 25.230469 72.332031 25.347656 73.230469 25.460938 C 76.824219 25.886719 80.585938 26.296875 84.496094 26.554688 C 88.402344 26.820312 92.449219 27.007812 96.59375 27.097656 C 100.738281 27.160156 104.789062 27.121094 108.703125 26.996094 C 112.621094 26.882812 116.394531 26.605469 120.003906 26.316406 C 120.902344 26.234375 121.792969 26.152344 122.671875 26.070312 C 123.550781 25.988281 124.414062 25.875 125.269531 25.785156 C 126.984375 25.621094 128.632812 25.363281 130.242188 25.171875 C 131.84375 24.933594 133.398438 24.714844 134.886719 24.472656 C 136.371094 24.203125 137.816406 24.003906 139.171875 23.722656 C 144.628906 22.695312 149.066406 21.664062 152.121094 20.859375 C 155.183594 20.050781 156.890625 19.601562 156.890625 19.601562 " fill-opacity="1" fill-rule="nonzero"/></g></g></g><g fill="#ffffff" fill-opacity="1"><g transform="translate(31.23418, 232.902574)"><g><path d="M 46.089844 -95.976562 L 31.480469 -81.367188 L 46.089844 -66.761719 L 60.769531 -81.367188 Z M 88.671875 -21.914062 L 88.671875 -66.761719 L 59.457031 -59.457031 L 59.457031 -6.5 L 32.867188 -6.5 L 32.867188 -54.195312 L 3.652344 -46.894531 L 3.652344 15.410156 L 88.671875 15.410156 L 88.671875 0 L 93.785156 0 L 93.785156 -21.914062 Z M 88.671875 -21.914062 "/></g></g></g><g fill="#ffffff" fill-opacity="1"><g transform="translate(157.297362, 265.187052)"><g><path d="M 0 -6.792969 L 40.171875 -11.832031 L 40.171875 -20.160156 L 0 -13.511719 Z M 0 -6.792969 "/></g></g></g><g fill="#ffffff" fill-opacity="1"><g transform="translate(123.552061, 232.902574)"><g><path d="M 104.011719 -66.761719 L 74.792969 -66.761719 L 74.792969 -21.914062 L 68.441406 -21.914062 L 68.441406 -66.761719 L 39.222656 -66.761719 L 39.222656 -21.914062 L 32.867188 -21.914062 L 32.867188 -66.761719 L 3.652344 -59.457031 L 3.652344 -21.914062 L -1.460938 -21.914062 L -1.460938 0 L 109.125 0 L 109.125 -21.914062 L 104.011719 -21.914062 Z M 104.011719 -66.761719 "/></g></g></g><g fill="#ffffff" fill-opacity="1"><g transform="translate(231.207563, 232.902574)"><g><path d="M -1.535156 -21.914062 L -1.535156 0 L 26.804688 0 L 26.804688 -21.914062 Z M -1.535156 -21.914062 "/></g></g></g><g fill="#ffffff" fill-opacity="1"><g transform="translate(256.551159, 232.902574)"><g><path d="M -1.535156 -21.914062 L -1.535156 0 L 26.804688 0 L 26.804688 -21.914062 Z M -1.535156 -21.914062 "/></g></g></g><g fill="#ffffff" fill-opacity="1"><g transform="translate(281.894754, 232.902574)"><g><path d="M -1.535156 -21.914062 L -1.535156 0 L 26.804688 0 L 26.804688 -21.914062 Z M -1.535156 -21.914062 "/></g></g></g><g fill="#ffffff" fill-opacity="1"><g transform="translate(307.238349, 232.902574)"><g><path d="M 3.652344 -21.914062 L -1.460938 -21.914062 L -1.460938 0 L 32.867188 0 L 32.867188 -94.953125 L 3.652344 -94.953125 Z M 3.652344 -21.914062 "/></g></g></g></svg>