<svg width="32" height="32" viewBox="0 0 32 32" fill="none" xmlns="http://www.w3.org/2000/svg">
<g id="u:search" opacity="0.7">
<path id="Vector" d="M28.9467 27.0552L24 22.1485C25.9202 19.7544 26.85 16.7156 26.5984 13.6569C26.3468 10.5982 24.9329 7.7522 22.6474 5.70402C20.3619 3.65583 17.3784 2.56117 14.3106 2.64512C11.2427 2.72907 8.32365 3.98524 6.15355 6.15535C3.98344 8.32545 2.72727 11.2445 2.64332 14.3124C2.55937 17.3802 3.65403 20.3636 5.70222 22.6492C7.7504 24.9347 10.5964 26.3486 13.6551 26.6002C16.7138 26.8518 19.7526 25.922 22.1467 24.0018L27.0534 28.9085C27.1773 29.0335 27.3248 29.1327 27.4873 29.2003C27.6497 29.268 27.824 29.3029 28 29.3029C28.176 29.3029 28.3503 29.268 28.5128 29.2003C28.6753 29.1327 28.8227 29.0335 28.9467 28.9085C29.187 28.6599 29.3213 28.3276 29.3213 27.9818C29.3213 27.636 29.187 27.3038 28.9467 27.0552ZM14.6667 24.0018C12.8207 24.0018 11.0162 23.4544 9.48137 22.4289C7.94651 21.4033 6.75023 19.9456 6.04382 18.2402C5.3374 16.5348 5.15257 14.6581 5.5127 12.8476C5.87282 11.0372 6.76174 9.37412 8.06703 8.06883C9.37232 6.76354 11.0354 5.87462 12.8458 5.5145C14.6563 5.15437 16.533 5.3392 18.2384 6.04562C19.9438 6.75203 21.4015 7.94831 22.4271 9.48317C23.4526 11.018 24 12.8225 24 14.6685C24 17.1438 23.0167 19.5178 21.2664 21.2682C19.516 23.0185 17.142 24.0018 14.6667 24.0018Z" fill="#A7AAA7"/>
</g>
</svg>
